<svg xmlns="http://www.w3.org/2000/svg" version="1.1" xmlns:xlink="http://www.w3.org/1999/xlink" xmlns:svgjs="http://svgjs.dev/svgjs" width="1000" height="1125" viewBox="0 0 1000 1125"><g transform="matrix(1,0,0,1,0,0)"><svg viewBox="0 0 320 360" data-background-color="#ea3c12" preserveAspectRatio="xMidYMid meet" height="1125" width="1000" xmlns="http://www.w3.org/2000/svg" xmlns:xlink="http://www.w3.org/1999/xlink"><g id="tight-bounds" transform="matrix(1,0,0,1,0,0)"><svg viewBox="0 0 320 360" height="360" width="320"><g><svg></svg></g><g><svg viewBox="0 0 320 360" height="360" width="320"><g><path xmlns="http://www.w3.org/2000/svg" d="M165.217 303.356c-1.404-1.755-2.809-0.702-2.808-1.755-8.426 2.106-24.223-3.511-30.894-2.809 1.404-2.106-2.106-1.755-2.106-3.159-1.404 2.106-2.809 0-4.915 0.702-2.106-5.266-10.532-1.404-11.585-8.075-4.915 0-6.67-2.809-11.586-5.617 0.351-0.351 0.702-0.351 1.054-0.702-2.457-0.351-2.457-1.755-4.564-1.755l0.702-1.405c-3.862-0.702-5.266-6.67-10.883-8.776-1.755-0.351-5.617-6.319-7.723-7.724-1.053-0.702-2.809-0.702-0.352-1.053-0.351-0.351-0.351-1.053 0-1.404-2.457-0.702-2.809-2.809-5.968-3.862-0.351-1.053 0.702-1.755 0-2.457-0.702-0.351-1.755 0.351-2.457 0-0.351 6.319 6.67 7.021 8.777 12.287-0.702-0.702-1.755-2.809-2.458-1.404-0.351 1.053 2.809 4.915 2.809 2.808-1.053 0.702-1.404-1.053-0.703-1.404 1.053 1.755 3.16 1.404 3.16 2.809-1.053 1.053-2.457-1.053-2.106 0.702 3.16 1.755 2.809 3.511 4.563 5.968-1.404-1.755-1.755 1.404-3.159 0-0.351-5.266-6.319-4.213-6.319-9.479-0.702-1.755-1.404-0.351-2.458-1.053 1.404-1.404-4.213-6.319-4.213-4.564-1.755-2.106-0.702-2.809-1.053-4.213-1.404-0.351-0.351 1.404-1.404 0.351 1.404-2.457-1.755-5.617-3.862-8.074l1.405-0.702c-2.457-1.404-2.809-4.213-4.564-7.373-2.106 3.16 4.213 10.181 3.159 11.585 0 0.351 2.457 3.16 3.16 4.564 2.809 4.915 4.915 10.883 8.777 13.692-0.702-0.351-0.351-2.457 0.702-1.404 0 1.053-0.702 2.106-0.702 3.159 2.106 2.106 3.862 3.862 5.968 5.968-4.564-2.809-9.128-5.617-12.288-9.83 1.755-0.351 3.511 2.809 4.915 2.458-3.511-2.809-2.457-3.862-3.861-7.372-1.404-1.053 0.351 1.404-1.054 1.755-4.564-4.213-8.075-6.67-10.181-10.532 0.351-0.351 0.702-0.702 0.703-1.404-0.351-0.351-0.351-0.351-0.703-0.702 2.106 2.106 2.809 3.862 5.266 4.212-1.053-1.053 0-1.404-1.404-2.457-0.702-1.404-1.755 0.702-2.457-0.351 0.702-1.053 0-2.457 0-3.511-0.702 0-1.404 0-1.756-1.053-0.702-0.351-1.053 0-1.404 0.702-0.351-0.351-0.351-1.053-0.702-1.404v-0.351c-0.351-0.351-0.702-1.053-1.053-1.405-2.809-7.372-4.564-17.202-8.426-23.521 1.053-4.213-0.702-12.638-1.755-14.745 1.053-1.755 0.351-9.83-0.351-11.234-1.755 0.702 0.351 4.564-1.404 5.617-1.755-7.723 1.053-16.5 0.351-23.521 0.702 0 1.404 0 1.404-0.351-1.053-1.053 0.702-3.16 0.351-5.617 1.404-3.16-3.16 4.564-3.16 7.723-0.351 0.702-1.755 0-1.404 1.756 0 2.457 0.702 7.372-0.702 10.883-0.702 0-0.702-0.702-1.404-0.351-0.351 1.755-0.702 3.862-1.053 5.617-0.351-0.702-0.702-1.755-0.703-2.107-1.755-8.777 0-18.958-0.702-26.33 1.404 0 1.404-2.106 2.458-2.808-0.351 2.809-1.053 6.319 0.702 7.021 1.404-13.692 4.213-28.787 10.532-43.532 4.564-10.883 11.234-21.766 19.308-30.543 0.702 1.053-0.351 3.511 0 4.564 7.021-7.372 11.585-16.149 19.309-21.064 0.351 1.755-3.16 3.16-3.16 4.564 3.16-3.16 4.213-2.106 7.724-3.159 1.053-1.404-1.404 0-1.756-1.405 2.106-1.404 3.511-3.16 4.915-4.212 0 0.351-0.351 0.351-0.351 0.702 3.862-1.053 4.213-3.16 7.022-3.862-0.351-0.351-1.053-0.702-2.107-0.351 0.702-0.351 1.755-1.053 2.809-1.404-0.351 0-0.351 0.351-0.702 0.351 2.106-1.053 0.351 0.351 0.351 1.053 0.351 0 0.702-0.351 0.702-0.351-2.106 1.404-3.511 2.106-4.213 4.564 1.053-0.702 1.404 0 2.809-1.054 1.404-0.702-0.351-1.755 0.702-2.457 1.053 0.702 2.457 0.351 3.51 0.351 0-0.702 0.351-1.404 1.054-1.755 0.351-0.702 0-1.053-0.352-1.053 0.351-0.351 0.702-0.351 1.405-0.703 0 0 0.351 0 0.351 0.351 5.968-2.809 12.638-5.266 18.957-7.372 3.862-0.351 8.777-0.351 10.883-2.808-0.702 0-1.404 0.351-1.755 0 0.351 0 1.053-0.351 1.404-0.351 0.702 0.702 1.755 0 0.702 1.404 0.351 0 0.351 0 0.703-0.351 0 0.351 0 0.351 0.351 0.702 0.351 0 0.702-0.351 1.053-1.053 0.351 0 0.702 0 1.053-0.351l-0.351 0.351c2.809-0.702 5.266-0.351 9.128-1.054 0-0.351 0-0.702 0-1.053 0.702 0 1.053-0.351 1.755-0.351v0.351c1.404-0.702 2.809 0.702 2.808 0 0.351 0 0.351 0 0.703 0 0 0.702-0.351 1.053-0.351 1.405 1.755 0 2.809 0 3.51-1.054-0.351-0.351-0.702-0.351-1.053-0.351 0.702 0 1.404-0.351 2.106-0.702 1.053 0.351 1.404 0.702 1.405 2.107 1.755-3.16 7.372 0.702 9.829 0 1.053 0 0.702-1.404 1.405-2.107 0.351 0 0.702 0 1.053 0 1.755 1.404 4.213 2.809 7.372 3.16-2.809-0.702 0.351-1.053 0.702-1.405-0.702 0-0.702-0.351-0.702-0.702 1.053 0 2.106 0.351 3.16 0.351 0 0.702 0.351 1.053 1.053 1.054 0.702 0 0.702-0.351 0.702-1.054 1.053 0 1.755 0 2.809 0.351-0.351 1.404 1.755 1.755 2.457 2.809-2.809-0.702-5.968-1.755-7.021 0 11.234 2.457 23.521 5.968 35.457 11.936 0 0 0 0 0 0.351h0.352c2.106 1.053 4.213 2.106 6.319 3.16 1.404 0.702 2.457 1.404 3.861 2.457 0 0.351 0 0.702 0.703 0.702h0.351c1.404 1.053 2.809 1.755 4.212 2.809 1.404 2.106 2.809 4.915 5.266 4.213 5.266 8.075 10.883 11.234 15.447 19.659 0.351-1.404 1.404 3.16 3.16 3.511-2.809-0.351 1.755 1.755-1.053 1.404 2.457 2.457 3.16 3.511 3.51 6.319-0.702-1.404-1.053-1.755-1.404-0.351-0.351 2.106 2.457-0.351 3.511 1.756-2.106 0-1.404 1.404-1.054 3.159 1.053-1.053 0.702-2.106 1.756-1.755 1.404 1.404-0.702 1.755-0.351 2.809 1.053-1.404 1.404-0.702 2.808 0-1.755 0.351 1.053 2.809-1.053 1.755 1.404 1.755 1.755 2.809 1.053 4.564-1.404-2.106-0.351-3.511-2.457-3.16 4.213 3.511 2.106 11.585 7.021 12.287-3.16 0.702 0 2.106-1.755 2.458 2.106 0.702 1.053 3.511 3.51 4.213-0.351 1.755-1.053 2.809-1.404 4.563 1.053 1.404 1.404 4.213 3.16 4.564-1.053 1.053-0.351 3.862-1.404 4.915 1.404-0.702 2.106-0.702 3.159 0.702-1.755 1.404-0.351 2.809-1.404 3.16 3.16 8.075-0.702 24.575 1.053 30.894-2.106-1.053-1.404 2.457-2.808 2.457 2.457 1.053 0.351 2.809 1.404 4.564-4.915 2.809 0 10.532-6.67 12.287 0.702 4.915-2.106 7.021-4.213 12.288-0.351-0.351-0.351-0.702-0.702-1.054-0.351 2.457-1.755 2.809-1.054 4.915l-1.404-0.702c0 3.862-5.968 5.968-7.372 11.936-0.351 1.755-5.617 6.319-7.022 8.777-0.702 1.053-0.351 2.809-1.053 0.351-0.351 0.351-1.053 0.351-1.404 0.351-0.351 2.457-2.457 3.16-3.16 6.319-0.702 0.351-1.755-0.702-2.457 0.351 0 0.702 0.702 1.755 0.351 2.458 6.319-0.351 6.319-7.723 11.234-10.181-0.351 1.053-2.457 2.106-1.053 2.808 1.053 0 4.213-3.511 2.457-3.159 1.053 0.702-1.053 1.404-1.404 1.053 1.755-1.404 1.053-3.16 2.458-3.511 1.053 0.702-1.053 2.457 1.053 2.107 1.404-3.16 3.16-3.511 5.266-5.266-1.404 1.404 1.755 1.755 0.351 3.159-5.266 1.053-3.511 7.021-8.777 7.724-1.404 1.053-0.351 1.404-0.702 2.457-1.755-1.053-5.617 4.915-4.213 4.564-1.755 1.755-2.809 1.053-4.212 1.404-0.351 1.404 1.404 0.351 0.702 1.405-2.457-1.053-5.617 2.457-7.724 4.915l-1.053-1.054c-1.053 2.809-3.862 3.16-7.021 5.266 3.511 1.755 9.479-5.617 11.234-4.564 0.351 0 3.16-2.809 4.213-3.861 4.564-3.511 10.181-6.319 12.287-10.181-0.351 0.702-2.457 0.702-1.404-0.351 1.053-0.351 2.106 0.351 3.159 0.351 5.617-7.723 12.638-14.043 17.905-23.17 0.351-0.351 0.702-1.053 1.053-1.756-0.702 2.106-1.755 3.862-2.458 5.968-5.617 3.862-7.723 15.096-14.393 16.851 0.351 3.862-3.16 4.915-4.915 9.479-1.053 1.404-1.755-1.053-2.809 0.702 1.053 4.915-8.777 4.564-8.425 9.128-0.702 0.351-1.755 0.702-2.458 1.404h-0.351c-0.351 0.351-0.351 0.351-0.702 0.702-1.755 1.053-3.16 2.106-4.564 3.16-4.915 2.809-11.585 4.915-16.851 7.723v-0.351c-1.404 0.702-3.16 0.351-2.809 1.756-1.053 0.702-2.106 1.404-3.159 2.106-0.351 0-0.351 0-0.702 0 0 0-0.351-0.351-0.702-0.351-0.702 0-0.702 0-1.054 0.351-4.564 0.351-10.532 2.457-12.287 3.862-1.755-1.053-9.83 0.702-11.234 1.404 0.702 1.053 2.809 0 4.564 0-1.053 0.351-2.106 0.702-2.458 1.404-0.351 0-0.351 0-0.702 0-0.351-1.053-1.404 0-1.755-0.351h0.351c-0.351-1.404-1.404-2.106-3.16-1.755 0 0.702 0 1.053-0.351 1.755 0.702 0 2.809-1.053 2.809 0-0.351 0-0.351 0.351 0 0.351-0.702 0.702-1.755 0.702-2.458 1.054-1.404 0-3.16 0-4.563 0-0.351-0.351-0.702-0.351-1.405-0.703-0.351 0.351-1.053 0.351-1.404 0.703-2.106 0-4.564 0.351-6.319 0.702 0-0.702 0-1.404-0.702-1.405-1.053 1.404-3.16-0.351-5.617 0.352-2.457-0.702 1.404 1.053 4.915 1.755-0.351 0.351-0.702 0.702-1.756 1.053M116.068 308.271c-4.915-4.564-15.096-6.67-16.851-10.181-2.809-0.351-7.021-5.617-10.532-6.319 1.755 0 0.351-1.053 0-1.755-0.702 0.702-1.404 1.053-2.106 1.053 0-2.809-2.809-4.564-5.266-6.319 1.755 1.053 3.16 1.755 5.266 2.106 0-0.702 0-1.404 0.702-1.404 2.457 2.457 5.266 4.915 8.425 7.372 4.213 3.862 25.979 13.692 29.841 15.447 0 0-0.702 1.404-0.351 1.404 1.755 1.053 3.16-1.053 3.511 1.404-5.617 0.702-7.723-3.16-12.639-2.808M277.909 226.824v0.351 0c-0.351 0 0-0.351 0-0.351M136.079 64.281c-0.351 0.351-0.702 0.351-0.702 0.351 0-0.351 0.351-0.351 0.702-0.351M129.409 66.036c0 0.351 0 0.351 0 0 0 0.351 0 0.351 0 0 0 0.351 0 0 0 0M106.238 73.408v0c0.351-0.351 0.351-0.351 0.703-0.351-0.351 0-0.702 0.351-0.703 0.351M162.409 61.823c-0.702 0-1.053 0-1.404-0.351 0.351 0 0.702 0 1.053 0h0.351c0 0 0 0 0 0.351M168.728 62.525c-0.351-0.351-1.404-0.702-2.457-0.702 0-0.351 0.351-0.702 0.351-0.702 0.351 0 0.702 0 1.053 0 0 0 0.351 0 0.351 0.351 0 0 0 0 0-0.351 0.351 0 0.351 0 0.702 0 0.351 0.702 0.702 1.053 0 1.404M180.313 63.579c-1.755 0.351-2.809-0.351-4.564-1.405 1.053 0 2.457 0.351 3.511 0.702 0.351 0 0.702 0.351 1.053 0.703M305.292 113.43c-0.702 0.351-1.053 0.351-1.755-1.053-5.617-11.936-15.798-29.138-30.543-43.532-14.394-14.745-33.702-26.681-51.255-33.001 1.053 0.351 2.457 1.053 1.755 1.756-15.447-5.968-30.192-9.479-44.234-10.883-37.915-5.968-77.585 2.106-108.128 21.766 0.351 0.702 0.351 1.053-0.702 1.755-11.234 7.021-27.032 19.309-39.671 35.458-12.638 16.149-22.468 36.511-26.681 54.766 0.351-1.053 0.702-2.809 1.405-2.107-9.128 36.16-6.67 67.053 5.968 93.735 0.702-0.702-1.755-4.213 0.351-3.862 1.404 3.862 3.16 8.075 5.266 11.936 2.457 5.617 5.266 12.989 9.128 14.745-9.83-19.309-16.5-41.426-17.203-61.085 1.404 2.809 1.053 8.777 3.16 11.234 0.702-13.34-2.457-31.245 2.106-43.883-1.053 6.67-1.755 15.798-1.053 24.925 0 6.67 3.16 25.277 5.266 27.032-0.351-0.351-0.351-2.106 0-2.106 1.053 2.106-1.404 3.16 0.351 3.511 0-0.702 0.351-0.702 0.702-0.703 3.511 7.723 8.075 19.66 11.585 25.628 4.213 7.723 9.83 14.745 16.149 21.064 0 0.351 0.351 0.351 0.352 0.702 0.702 1.755 3.16 3.862 3.861 5.266 0.351 0.702-0.351 1.755 0 2.458 5.266 9.83 12.989 19.66 22.468 27.383 5.968 7.021 15.447 14.394 27.032 20.713 11.234 5.968 24.223 10.883 36.16 13.691 8.426 2.106 18.606 2.457 24.926 3.862 8.426 1.755 23.17-0.702 30.542-2.107 44.234-6.67 88.117-36.862 110.235-80.393 22.819-43.883 22.117-97.596 2.457-138.671" fill="#ffbe79" fill-rule="nonzero" stroke="none" stroke-width="1" stroke-linecap="butt" stroke-linejoin="miter" stroke-miterlimit="10" stroke-dasharray="" stroke-dashoffset="0" font-family="none" font-weight="none" font-size="none" text-anchor="none" style="mix-blend-mode: normal" data-fill-palette-color="tertiary"></path></g><g transform="matrix(1,0,0,1,80,138.70170475789473)"><svg viewBox="0 0 160 82.59659048421054" height="82.59659048421054" width="160"><g><svg viewBox="0 0 160 82.59659048421054" height="82.59659048421054" width="160"><g><svg viewBox="0 0 160 82.59659048421054" height="82.59659048421054" width="160"><g transform="matrix(1,0,0,1,0,49.92290627368421)"><svg viewBox="0 0 160 32.67368421052632" height="32.67368421052632" width="160"><g id="textblocktransform"><svg viewBox="0 0 160 32.67368421052632" height="32.67368421052632" width="160" id="textblock"><g><svg viewBox="0 0 160 32.67368421052632" height="32.67368421052632" width="160"><g transform="matrix(1,0,0,1,0,0)"><svg width="160" viewBox="3.450000047683716 -38.349998474121094 189.99000549316406 38.79999923706055" height="32.67368421052632" data-palette-color="#ffbe79"><path d="M15.45-32.5L15.45-32.5 10.05-32.5 10.05-17.05 15.45-17.05Q19.4-17.05 21.5-19.18 23.6-21.3 23.6-24.78 23.6-28.25 21.5-30.38 19.4-32.5 15.45-32.5ZM7.6-36.15L7.6-36.15 16.05-36.15Q21.95-36.15 25.7-33.13 29.45-30.1 29.45-24.8 29.45-19.5 25.7-16.48 21.95-13.45 16.05-13.45L16.05-13.45 10.05-13.45 10.05-3.7Q10.05-1.9 11.45-1.3L11.45-1.3Q10.15 0.45 8.2 0.45L8.2 0.45Q4.8 0.45 4.8-3.75L4.8-3.75 4.8-31.8Q4.8-33.6 3.45-34.2L3.45-34.2Q4.85-36.15 7.6-36.15ZM39.35-6.5L39.35-6.5Q39.35-3.3 42.85-3.3 46.35-3.3 48.6-6.25L48.6-6.25 48.6-11.9Q43.85-11.65 41.6-10.18 39.35-8.7 39.35-6.5ZM53.85-17.75L53.85-17.75 53.85-5.05Q53.85-2.25 56.35-1.75L56.35-1.75Q55.1 0.45 52.5 0.45L52.5 0.45Q49.15 0.45 48.65-3.3L48.65-3.3Q45.75 0.45 40.9 0.45L40.9 0.45Q37.7 0.45 35.7-1.25 33.7-2.95 33.7-5.95L33.7-5.95Q33.7-9.65 37.5-11.93 41.3-14.2 48.6-14.4L48.6-14.4 48.6-17.9Q48.6-20.6 47.62-21.88 46.65-23.15 44.62-23.15 42.6-23.15 41.55-22.28 40.5-21.4 40.5-20.18 40.5-18.95 41.2-18.2L41.2-18.2Q39.95-17.1 38.3-17.1 36.65-17.1 35.72-17.93 34.8-18.75 34.8-20.2L34.8-20.2Q34.8-22.7 37.7-24.4 40.6-26.1 44.72-26.1 48.85-26.1 51.35-23.95 53.85-21.8 53.85-17.75ZM84.3-21.85L84.3-21.85 84.3-3.7Q84.3-1.9 85.7-1.3L85.7-1.3Q84.4 0.45 82.5 0.45L82.5 0.45Q79.1 0.45 79.1-3.75L79.1-3.75 79.1-4.1Q76.4 0.45 71.25 0.45L71.25 0.45Q67.1 0.45 64.82-1.73 62.55-3.9 62.55-8.25L62.55-8.25 62.55-21.9Q62.55-23.65 61.15-24.35L61.15-24.35Q62.45-26.1 64.35-26.1L64.35-26.1Q67.75-26.1 67.75-21.85L67.75-21.85 67.75-8.65Q67.75-3.8 72.6-3.8L72.6-3.8Q74.8-3.8 76.5-5.08 78.2-6.35 79.1-8.75L79.1-8.75 79.1-21.9Q79.1-23.65 77.7-24.35L77.7-24.35Q79.1-26.1 80.9-26.1L80.9-26.1Q84.3-26.1 84.3-21.85ZM98.04-34.15L98.04-34.15 98.04-3.7Q98.04-1.9 99.44-1.3L99.44-1.3Q98.14 0.45 96.24 0.45L96.24 0.45Q92.84 0.45 92.84-3.75L92.84-3.75 92.84-34.2Q92.84-35.95 91.44-36.65L91.44-36.65Q92.64-38.35 94.64-38.35L94.64-38.35Q98.04-38.35 98.04-34.15ZM159.74-33L159.74-33Q159.74-34.6 158.69-35.45L158.69-35.45Q159.89-36.55 161.54-36.55L161.54-36.55Q164.84-36.55 164.84-33.3L164.84-33.3Q164.84-32.75 164.54-31.15L164.54-31.15 157.14-3.6Q156.14 0.45 152.81 0.45 149.49 0.45 148.59-3.6L148.59-3.6 141.84-29.05 134.99-3.6Q134.49-1.4 133.44-0.48 132.39 0.45 130.64 0.45 128.89 0.45 127.91-0.43 126.94-1.3 126.39-3.6L126.39-3.6 119.09-31.45Q118.44-33.95 116.99-34.6L116.99-34.6Q118.24-36.55 120.54-36.55L120.54-36.55Q122.04-36.55 122.99-35.58 123.94-34.6 124.44-32.2L124.44-32.2 130.89-5.1 138.34-33.4Q138.84-35.15 139.76-35.85 140.69-36.55 142.19-36.55L142.19-36.55Q145.29-36.55 146.04-33.4L146.04-33.4 153.14-4.95 159.54-31.35Q159.74-32.25 159.74-33ZM192.04-21.85L192.04-21.85 192.04-3.7Q192.04-1.9 193.44-1.3L193.44-1.3Q192.14 0.45 190.24 0.45L190.24 0.45Q186.84 0.45 186.84-3.75L186.84-3.75 186.84-4.1Q184.14 0.45 178.99 0.45L178.99 0.45Q174.84 0.45 172.56-1.73 170.29-3.9 170.29-8.25L170.29-8.25 170.29-21.9Q170.29-23.65 168.89-24.35L168.89-24.35Q170.19-26.1 172.09-26.1L172.09-26.1Q175.49-26.1 175.49-21.85L175.49-21.85 175.49-8.65Q175.49-3.8 180.34-3.8L180.34-3.8Q182.54-3.8 184.24-5.08 185.94-6.35 186.84-8.75L186.84-8.75 186.84-21.9Q186.84-23.65 185.44-24.35L185.44-24.35Q186.84-26.1 188.64-26.1L188.64-26.1Q192.04-26.1 192.04-21.85Z" opacity="1" transform="matrix(1,0,0,1,0,0)" fill="#ffbe79" class="wordmark-text-0" data-fill-palette-color="primary" id="text-0"></path></svg></g></svg></g></svg></g></svg></g><g transform="matrix(1,0,0,1,58.15079117147708,0)"><svg viewBox="0 0 43.698417657045844 45.15503157894737" height="45.15503157894737" width="43.698417657045844"><g><svg xmlns="http://www.w3.org/2000/svg" viewBox="2 2 60 62" x="0" y="0" height="45.15503157894737" width="43.698417657045844" class="icon-icon-0" data-fill-palette-color="accent" id="icon-0"><g fill="#ffbe79" data-fill-palette-color="accent"><path d="M61 20a1 1 0 0 0-1 1v2.382l-0.553-0.277a1 1 0 0 0-0.894 0L58 23.382V21a1 1 0 0 0-2 0v2.674l-5.047-1.442A0.946 0.946 0 0 0 51 22V19a1 1 0 0 0-2 0v2.674l-5-1.428V14a1 1 0 0 0-2 0v3.712a1.932 1.932 0 0 1-0.814-0.941L40 13.807V9a1 1 0 0 0-2 0v2.826L33 7.54V6h1a1 1 0 0 0 0-2H33V3a1 1 0 0 0-2 0V4H30a1 1 0 0 0 0 2h1V7.54l-5 4.286V9a1 1 0 0 0-2 0v4.807l-1.186 2.964a1.932 1.932 0 0 1-0.814 0.941V14a1 1 0 0 0-2 0v6.246l-4 1.143V19a1 1 0 0 0-2 0v2.96L8 23.674V21a1 1 0 0 0-2 0v2.382l-0.553-0.277a1 1 0 0 0-0.894 0L4 23.382V21a1 1 0 0 0-2 0V63a1 1 0 0 0 1 1H61a1 1 0 0 0 1-1V21A1 1 0 0 0 61 20ZM6 62H4V50H6ZM6 48H4V46H6Zm0-4H4V30H6ZM6 28H4V25.618l1-0.5 1 0.5ZM16 62H12V56h4Zm4 0H18V55a1 1 0 0 0-1-1H11a1 1 0 0 0-1 1v7H8V50H20Zm0-14H8V46H20Zm-6-4V39a1 1 0 0 1 2 0v5Zm6 0H18V39a3 3 0 0 0-6 0v5H8V34H20Zm0-12H8V30H20Zm0-4H8V25.754l12-3.428Zm4 34H22V50h2Zm0-14H22V46h2Zm0-4H22V30h2Zm0-16H22V19.874a3.907 3.907 0 0 0 2-1.287ZM32 9.317L36.3 13H27.7ZM34 62H30V54h4Zm4 0H36V53a1 1 0 0 0-1-1H29a1 1 0 0 0-1 1v9H26V50H38Zm0-14H26V46H38Zm-8-4V36a2 2 0 0 1 4 0v8Zm8 0H36V36a4 4 0 0 0-8 0v8H26V30H38ZM30 28V25a2 2 0 0 1 4 0v3Zm8 0H36V25a4 4 0 0 0-8 0v3H26V19H38Zm0-11H26V15H38Zm4 45H40V50h2Zm0-14H40V46h2Zm0-4H40V30h2Zm0-23v7H40V18.587a3.907 3.907 0 0 0 2 1.287ZM52 62H48V56h4Zm4 0H54V55a1 1 0 0 0-1-1H47a1 1 0 0 0-1 1v7H44V50H56Zm0-14H44V46H56Zm-7-4V39a1 1 0 0 1 2 0v5Zm7 0H53V39a3 3 0 0 0-6 0v5H44V34H56Zm0-12H44V30H56Zm0-4H44V22.326l12 3.428Zm4 34H58V50h2Zm0-14H58V46h2Zm0-4H58V30h2Zm0-16H58V25.618l1-0.5 1 0.5Z" fill="#ffbe79" data-fill-palette-color="accent"></path></g></svg></g></svg></g><g></g></svg></g></svg></g></svg></g></svg></g><defs></defs></svg><rect width="320" height="360" fill="none" stroke="none" visibility="hidden"></rect></g></svg></g></svg>